<svg width="115" height="109" viewBox="0 0 115 109" fill="none" xmlns="http://www.w3.org/2000/svg">
<path d="M95.7274 57.5101L108.23 61.1878L106.621 66.0711C106.311 67.0099 105.867 67.7565 105.287 68.3107C104.711 68.8661 104.046 69.2231 103.293 69.3817C102.542 69.5455 101.752 69.5052 100.922 69.261C100.092 69.0168 99.4174 68.624 98.8994 68.0827C98.3813 67.5414 98.0561 66.8822 97.9238 66.1052C97.7902 65.3322 97.8801 64.4702 98.1935 63.5193L99.2194 60.4068L101.338 61.0299L100.451 63.7194C100.285 64.2231 100.236 64.6638 100.304 65.0416C100.374 65.4247 100.539 65.7429 100.799 65.9963C101.062 66.2548 101.399 66.4446 101.81 66.5655C102.225 66.6876 102.615 66.7116 102.979 66.6373C103.345 66.5684 103.668 66.3938 103.948 66.1137C104.232 65.8348 104.458 65.4415 104.625 64.9338L105.207 63.169L94.8649 60.127L95.7274 57.5101Z" fill="black"/>
<path d="M91.455 70.323L93.3224 68.0358L101.01 79.1957L98.7644 81.9462L85.3899 77.7514L87.2573 75.4642L97.4481 78.8565L97.5125 78.7777L91.455 70.323ZM95.7119 73.1968L91.301 78.5993L89.5626 77.3326L93.9736 71.9301L95.7119 73.1968Z" fill="black"/>
<path d="M82.661 90.8132C82.9089 91.0257 83.168 91.1899 83.4381 91.3056C83.7106 91.4248 83.9929 91.4938 84.2852 91.5127C84.5762 91.5373 84.874 91.5109 85.1788 91.4337C85.4799 91.3587 85.7837 91.2303 86.0903 91.0486C86.6632 90.709 87.0753 90.2727 87.3266 89.7396C87.5741 89.2087 87.6435 88.6086 87.5346 87.9393C87.4281 87.2735 87.1238 86.5625 86.6215 85.8062C86.1192 85.0499 85.5734 84.477 84.9841 84.0875C84.3948 83.698 83.7903 83.4924 83.1706 83.4706C82.5533 83.4524 81.949 83.6185 81.3578 83.9689C80.8213 84.2868 80.4243 84.6502 80.1668 85.0589C79.908 85.4734 79.7909 85.9097 79.8155 86.3679C79.8364 86.8283 80.0006 87.29 80.3081 87.7529L79.7806 87.9696L82.671 86.2564L83.8187 87.9845L79.1273 90.7652L78.219 89.3975C77.5852 88.4433 77.2487 87.5001 77.2094 86.568C77.1725 85.6393 77.3958 84.7731 77.8792 83.9694C78.365 83.1693 79.0787 82.4902 80.0203 81.9321C81.0714 81.3091 82.1437 80.9863 83.2374 80.9635C84.3334 80.9443 85.3798 81.218 86.3767 81.7846C87.3722 82.3569 88.2501 83.2156 89.0106 84.3606C89.595 85.2406 89.9847 86.103 90.1796 86.9478C90.3732 87.7984 90.3906 88.6057 90.2317 89.3697C90.0728 90.1337 89.7592 90.8293 89.2908 91.4566C88.8225 92.0839 88.2178 92.6171 87.477 93.0562C86.842 93.4326 86.1909 93.6929 85.5238 93.8371C84.859 93.9849 84.207 94.0216 83.5677 93.9474C82.9248 93.8754 82.3192 93.695 81.7511 93.4062C81.1853 93.121 80.6857 92.7325 80.2523 92.2408L82.661 90.8132Z" fill="black"/>
<path d="M74.6037 85.7793L78.4039 98.2456L69.9302 100.551L69.2677 98.3778L75.0827 96.7959L74.1772 93.8254L68.7981 95.2887L68.1357 93.1157L73.5147 91.6523L72.6073 88.6757L66.7678 90.2644L66.1053 88.0913L74.6037 85.7793Z" fill="black"/>
<path d="M58.4848 100.475L58.1155 102.717L47.5258 101.16L47.895 98.9185L51.8425 99.4988L53.5914 88.881L56.2861 89.2771L54.5372 99.8948L58.4848 100.475Z" fill="black"/>
<path d="M33.5578 89.097C34.3171 87.8956 35.1977 87.0059 36.1996 86.4279C37.1979 85.8477 38.2403 85.5625 39.3269 85.5721C40.4075 85.5833 41.4485 85.8713 42.4499 86.4361C43.4587 87.0051 44.2235 87.738 44.7443 88.635C45.265 89.532 45.4919 90.5331 45.4249 91.6385C45.3578 92.7438 44.9458 93.8954 44.1888 95.0932C43.4295 96.2946 42.5507 97.1853 41.5525 97.7655C40.5543 98.3456 39.5148 98.6301 38.4342 98.619C37.3513 98.6114 36.3055 98.3231 35.2967 97.7541C34.2953 97.1893 33.5342 96.4584 33.0134 95.5615C32.4867 94.666 32.2568 93.6656 32.3239 92.5602C32.3872 91.4528 32.7985 90.2984 33.5578 89.097ZM35.9911 90.4694C35.4992 91.2476 35.2046 91.9717 35.107 92.6415C35.0058 93.3092 35.0841 93.9031 35.3419 94.423C35.5997 94.943 36.0187 95.3666 36.5988 95.6938C37.179 96.0211 37.7725 96.1685 38.3793 96.1362C38.9862 96.104 39.5786 95.8884 40.1564 95.4895C40.7307 95.0885 41.2637 94.499 41.7555 93.7208C42.2474 92.9426 42.5439 92.2196 42.6451 91.5519C42.7426 90.8821 42.6625 90.2872 42.4047 89.7672C42.1469 89.2472 41.7279 88.8236 41.1478 88.4964C40.5676 88.1691 39.9741 88.0217 39.3673 88.054C38.7604 88.0863 38.1699 88.3029 37.5957 88.7038C37.0178 89.1027 36.4829 89.6912 35.9911 90.4694Z" fill="black"/>
<path d="M34.9836 83.6007L25.0291 92.0125L21.4938 88.2789C20.8142 87.5611 20.3794 86.8278 20.1894 86.0789C19.9962 85.3327 20.0285 84.6122 20.2864 83.9174C20.5381 83.2222 20.9945 82.5953 21.6556 82.0367C22.3166 81.4781 23.0282 81.1208 23.7904 80.9647C24.5526 80.8086 25.3182 80.8687 26.0873 81.1449C26.8534 81.4181 27.5806 81.9181 28.269 82.6452L30.5223 85.0249L28.8357 86.4501L26.8887 84.3939C26.5241 84.0088 26.1539 83.7504 25.7783 83.6186C25.3966 83.4865 25.0226 83.4642 24.6564 83.5518C24.2841 83.6391 23.9343 83.821 23.607 84.0976C23.2765 84.3769 23.0479 84.6837 22.9212 85.0181C22.7883 85.3522 22.7735 85.703 22.8766 86.0707C22.9764 86.441 23.2101 86.8202 23.5776 87.2084L24.8552 88.5577L33.0891 81.5999L34.9836 83.6007Z" fill="black"/>
<path d="M23.6982 72.1922L11.182 75.8249L9.59177 70.9352C9.28605 69.9952 9.20691 69.1418 9.35434 68.3749C9.49769 67.6092 9.83277 66.96 10.3596 66.4274C10.881 65.8919 11.5573 65.5036 12.3885 65.2624C13.2196 65.0211 14.0107 64.9858 14.7618 65.1563C15.5128 65.3269 16.1751 65.6976 16.7487 66.2685C17.321 66.8353 17.7619 67.5948 18.0716 68.5469L19.0852 71.6635L16.9645 72.279L16.0887 69.586C15.9247 69.0817 15.702 68.6916 15.4205 68.4156C15.1336 68.1369 14.8071 67.9623 14.4409 67.892C14.0693 67.8188 13.6778 67.8419 13.2663 67.9614C12.8507 68.082 12.515 68.2699 12.2591 68.5252C11.9979 68.7776 11.8355 69.0941 11.772 69.4746C11.7044 69.8563 11.7532 70.3013 11.9186 70.8096L12.4933 72.5767L22.846 69.5719L23.6982 72.1922Z" fill="black"/>
<path d="M19.1781 59.179L18.9978 62.1262L6.25932 56.9248L6.47622 53.3805L19.7639 49.6069L19.5835 52.5541L9.34461 55.2643L9.33839 55.3659L19.1781 59.179ZM14.0518 59.0838L14.4778 52.1223L16.6255 52.2396L16.1995 59.2011L14.0518 59.0838Z" fill="black"/>
<path d="M14.4335 37.2191C14.1099 37.181 13.8043 37.1895 13.5169 37.2446C13.2256 37.2979 12.9543 37.3987 12.703 37.5468C12.4496 37.6894 12.2192 37.8782 12.0116 38.1133C11.8058 38.3445 11.6277 38.6216 11.4773 38.9447C11.1963 39.5486 11.102 40.1428 11.1946 40.7274C11.2889 41.3082 11.5689 41.8468 12.0345 42.3431C12.4962 42.8378 13.1463 43.2593 13.9847 43.6075C14.8232 43.9558 15.5944 44.1269 16.2984 44.121C17.0025 44.1151 17.6158 43.9476 18.1383 43.6185C18.6569 43.2877 19.0612 42.8108 19.3512 42.1877C19.6144 41.6223 19.7372 41.0973 19.7196 40.6127C19.6999 40.1226 19.5513 39.6936 19.2736 39.3259C18.9977 38.9542 18.6032 38.6618 18.0899 38.4487L18.4026 37.9727L16.9849 41.0189L15.069 40.2231L17.3702 35.2788L18.8865 35.9086C19.9443 36.348 20.7512 36.9448 21.3072 37.6989C21.8593 38.4515 22.162 39.2978 22.2153 40.2379C22.2647 41.1764 22.0585 42.1418 21.5967 43.1341C21.0811 44.2418 20.3794 45.1116 19.4916 45.7434C18.5999 46.3736 17.5845 46.7321 16.4454 46.8189C15.3041 46.9002 14.0988 46.6773 12.8294 46.15C11.8539 45.7448 11.0486 45.2451 10.4135 44.6508C9.77624 44.0511 9.30846 43.3886 9.01014 42.6635C8.71182 41.9383 8.57931 41.1833 8.61263 40.3985C8.64594 39.6137 8.8443 38.831 9.2077 38.0502C9.51918 37.3809 9.90909 36.7994 10.3774 36.3054C10.8418 35.8098 11.3581 35.4138 11.9262 35.1174C12.4961 34.8171 13.0961 34.628 13.7261 34.55C14.3522 34.4705 14.9818 34.514 15.6149 34.6805L14.4335 37.2191Z" fill="black"/>
<path d="M23.8215 37.1179L13.5706 29.0699L19.3712 22.4765L21.1581 23.8794L17.1776 28.404L19.6201 30.3217L23.3022 26.1363L25.0891 27.5392L21.407 31.7246L23.8546 33.6462L27.8519 29.1025L29.6388 30.5054L23.8215 37.1179Z" fill="black"/>
<path d="M28.4458 16.8709L27.4127 14.8476L37.1527 10.4093L38.1858 12.4326L34.555 14.0871L39.4485 23.6709L36.9701 24.8003L32.0766 15.2165L28.4458 16.8709Z" fill="black"/>
<path d="M55.6738 13.0783C55.7726 14.4961 55.5877 15.719 55.1193 16.747C54.6551 17.7747 53.9797 18.5796 53.0932 19.1618C52.2107 19.7395 51.1957 20.064 50.0482 20.1354C48.8923 20.2073 47.8366 20.0094 46.8812 19.5418C45.9258 19.0741 45.1467 18.3596 44.5439 17.3982C43.9411 16.4369 43.5904 15.2494 43.4919 13.8359C43.3931 12.4181 43.5758 11.1954 44.04 10.1676C44.5042 9.13989 45.1776 8.33718 46.0602 7.75949C46.9424 7.17756 47.9615 6.85066 49.1175 6.77877C50.2649 6.70742 51.3164 6.90556 52.2718 7.37321C53.2311 7.83636 54.0122 8.54862 54.615 9.51C55.2221 10.4711 55.575 11.6605 55.6738 13.0783ZM52.8855 13.2517C52.8215 12.3333 52.63 11.5674 52.3108 10.9539C51.9959 10.3402 51.5793 9.8858 51.0612 9.59073C50.5431 9.29566 49.9517 9.1688 49.2869 9.21014C48.6221 9.25148 48.0534 9.45049 47.5807 9.80717C47.108 10.1639 46.756 10.666 46.5247 11.3138C46.2977 11.9612 46.2162 12.7441 46.2801 13.6625C46.3441 14.5808 46.5336 15.3469 46.8485 15.9606C47.1677 16.5741 47.5863 17.0284 48.1045 17.3234C48.6226 17.6185 49.214 17.7454 49.8788 17.704C50.5436 17.6627 51.1123 17.4637 51.585 17.107C52.0577 16.7503 52.4076 16.2483 52.6346 15.6008C52.8659 14.9531 52.9495 14.1701 52.8855 13.2517Z" fill="black"/>
<path d="M58.0297 18.6386L61.3293 6.03054L66.3364 7.19997C67.2989 7.42479 68.0712 7.79895 68.6531 8.32247C69.2361 8.84187 69.6209 9.46525 69.8076 10.1926C69.9994 10.9168 69.9858 11.6975 69.7667 12.5348C69.5476 13.372 69.1725 14.0683 68.6414 14.6236C68.1102 15.179 67.453 15.5546 66.6697 15.7506C65.8904 15.9474 65.0133 15.932 64.0384 15.7043L60.847 14.959L61.4061 12.8227L64.1636 13.4668C64.6801 13.5874 65.1287 13.5985 65.5095 13.5002C65.8955 13.3988 66.2125 13.2093 66.4604 12.9319C66.7136 12.6513 66.8944 12.3038 67.0029 11.8892C67.1125 11.4706 67.1234 11.0856 67.0356 10.7341C66.9531 10.3795 66.765 10.0764 66.4713 9.82493C66.1788 9.56933 65.7722 9.38074 65.2517 9.25916L63.4422 8.83655L60.7129 19.2653L58.0297 18.6386Z" fill="black"/>
<path d="M74.0879 21.9768L82.537 12.054L86.6309 15.1649C87.4179 15.7629 87.966 16.4162 88.2752 17.1246C88.5872 17.8298 88.6725 18.5463 88.5312 19.2742C88.396 20.0014 88.0478 20.6945 87.4868 21.3534C86.9257 22.0123 86.282 22.4808 85.5557 22.7588C84.8294 23.0369 84.0646 23.1021 83.2612 22.9544C82.4612 22.8094 81.6626 22.4339 80.8654 21.8282L78.2561 19.8454L79.6876 18.1641L81.9423 19.8774C82.3645 20.1983 82.7716 20.3932 83.1635 20.4622C83.5615 20.5306 83.9339 20.4917 84.2808 20.3457C84.6338 20.1989 84.9492 19.9625 85.227 19.6362C85.5075 19.3068 85.6831 18.9667 85.7536 18.6159C85.8303 18.2646 85.7879 17.9158 85.6264 17.5697C85.4677 17.2203 85.1755 16.8839 84.7499 16.5605L83.2704 15.4362L76.2818 23.6439L74.0879 21.9768Z" fill="black"/>
<path d="M85.6347 29.9824L84.0528 27.4891L97.8041 24.8667L99.7064 27.8651L90.7723 38.08L89.1905 35.5868L96.1909 27.8763L96.1364 27.7903L85.6347 29.9824ZM89.9936 27.3025L93.73 33.1917L91.8583 34.2515L88.1219 28.3623L89.9936 27.3025Z" fill="black"/>
<path d="M102.971 45.551C103.259 45.4099 103.504 45.2397 103.707 45.0403C103.914 44.8402 104.076 44.6114 104.194 44.3538C104.317 44.0996 104.394 43.8191 104.424 43.5123C104.455 43.2097 104.436 42.8835 104.367 42.5339C104.238 41.8805 103.962 41.3348 103.538 40.8968C103.115 40.4631 102.566 40.1636 101.889 39.9985C101.216 39.8327 100.433 39.8285 99.5389 39.9859C98.6448 40.1433 97.911 40.4124 97.3377 40.7933C96.7643 41.1742 96.3615 41.6413 96.1291 42.1947C95.9009 42.7474 95.8533 43.3609 95.9864 44.0352C96.1071 44.647 96.3187 45.1502 96.6214 45.5449C96.929 45.9429 97.306 46.2211 97.7523 46.3794C98.1993 46.5419 98.6966 46.5749 99.2439 46.4786L99.2708 47.0423L98.6205 43.7459L100.664 43.3862L101.719 48.7367L100.102 49.0213C98.9741 49.2199 97.9579 49.1533 97.0538 48.8215C96.1538 48.489 95.4023 47.9451 94.7994 47.1899C94.2007 46.434 93.7954 45.5191 93.5836 44.4453C93.3471 43.2466 93.4047 42.1468 93.7563 41.146C94.1121 40.1445 94.7309 39.3035 95.6125 38.6228C96.4992 37.9456 97.6194 37.4878 98.9732 37.2495C100.014 37.0663 100.971 37.0529 101.844 37.2091C102.723 37.3688 103.501 37.6712 104.176 38.1165C104.852 38.5617 105.41 39.1203 105.849 39.7923C106.289 40.4643 106.592 41.2227 106.759 42.0676C106.902 42.7919 106.928 43.4849 106.838 44.1467C106.752 44.8078 106.565 45.4136 106.276 45.9641C105.987 46.5188 105.608 46.9968 105.138 47.3982C104.673 47.7989 104.131 48.0989 103.513 48.2981L102.971 45.551Z" fill="black"/>
<path d="M58.2156 38.1003C57.6298 37.5146 56.68 37.5146 56.0942 38.1003L46.5483 47.6463C45.9625 48.2321 45.9625 49.1818 46.5483 49.7676C47.1341 50.3534 48.0838 50.3534 48.6696 49.7676L57.1549 41.2823L65.6402 49.7676C66.226 50.3534 67.1757 50.3534 67.7615 49.7676C68.3473 49.1818 68.3473 48.2321 67.7615 47.6463L58.2156 38.1003ZM58.6549 68.7969L58.6549 39.161L55.6549 39.161L55.6549 68.7969L58.6549 68.7969Z" fill="black"/>
</svg>
